<mxfile host="app.diagrams.net" modified="2023-12-14T06:59:06.917Z" agent="Mozilla/5.0 (Windows NT 10.0; Win64; x64) AppleWebKit/537.36 (KHTML, like Gecko) Chrome/120.0.0.0 Safari/537.36" etag="on3GIM0mAnWiSIIk-bM_" version="22.1.8" type="github">
  <diagram id="C5RBs43oDa-KdzZeNtuy" name="Page-1">
    <mxGraphModel dx="1221" dy="725" grid="0" gridSize="10" guides="1" tooltips="1" connect="1" arrows="1" fold="1" page="1" pageScale="1" pageWidth="827" pageHeight="1169" math="0" shadow="0">
      <root>
        <mxCell id="WIyWlLk6GJQsqaUBKTNV-0" />
        <mxCell id="WIyWlLk6GJQsqaUBKTNV-1" parent="WIyWlLk6GJQsqaUBKTNV-0" />
        <mxCell id="vPuqmlGFBNl815EYrdy--20" style="edgeStyle=orthogonalEdgeStyle;rounded=0;orthogonalLoop=1;jettySize=auto;html=1;exitX=0.5;exitY=1;exitDx=0;exitDy=0;entryX=0.5;entryY=0;entryDx=0;entryDy=0;strokeWidth=1;" edge="1" parent="WIyWlLk6GJQsqaUBKTNV-1" source="WIyWlLk6GJQsqaUBKTNV-3" target="WIyWlLk6GJQsqaUBKTNV-7">
          <mxGeometry relative="1" as="geometry" />
        </mxCell>
        <mxCell id="vPuqmlGFBNl815EYrdy--21" style="edgeStyle=orthogonalEdgeStyle;rounded=0;orthogonalLoop=1;jettySize=auto;html=1;exitX=0.5;exitY=1;exitDx=0;exitDy=0;entryX=0.5;entryY=0;entryDx=0;entryDy=0;strokeWidth=1;" edge="1" parent="WIyWlLk6GJQsqaUBKTNV-1" source="WIyWlLk6GJQsqaUBKTNV-3" target="vPuqmlGFBNl815EYrdy--16">
          <mxGeometry relative="1" as="geometry" />
        </mxCell>
        <mxCell id="WIyWlLk6GJQsqaUBKTNV-3" value="接入服务部署" style="rounded=1;whiteSpace=wrap;html=1;fontSize=12;glass=0;strokeWidth=1;shadow=0;" parent="WIyWlLk6GJQsqaUBKTNV-1" vertex="1">
          <mxGeometry x="543" y="227" width="120" height="40" as="geometry" />
        </mxCell>
        <mxCell id="WIyWlLk6GJQsqaUBKTNV-7" value="设备管理" style="rounded=1;whiteSpace=wrap;html=1;fontSize=12;glass=0;strokeWidth=1;shadow=0;" parent="WIyWlLk6GJQsqaUBKTNV-1" vertex="1">
          <mxGeometry x="400" y="335" width="87" height="40" as="geometry" />
        </mxCell>
        <mxCell id="vPuqmlGFBNl815EYrdy--2" style="rounded=0;orthogonalLoop=1;jettySize=auto;html=1;exitX=1;exitY=0.3333333333333333;exitDx=0;exitDy=0;exitPerimeter=0;entryX=0;entryY=0.5;entryDx=0;entryDy=0;endArrow=none;endFill=0;" edge="1" parent="WIyWlLk6GJQsqaUBKTNV-1" source="vPuqmlGFBNl815EYrdy--0" target="vPuqmlGFBNl815EYrdy--1">
          <mxGeometry relative="1" as="geometry" />
        </mxCell>
        <mxCell id="vPuqmlGFBNl815EYrdy--0" value="管理员" style="shape=umlActor;verticalLabelPosition=bottom;verticalAlign=top;html=1;outlineConnect=0;" vertex="1" parent="WIyWlLk6GJQsqaUBKTNV-1">
          <mxGeometry x="26" y="220" width="30" height="60" as="geometry" />
        </mxCell>
        <mxCell id="vPuqmlGFBNl815EYrdy--1" value="接入服务部署" style="ellipse;whiteSpace=wrap;html=1;" vertex="1" parent="WIyWlLk6GJQsqaUBKTNV-1">
          <mxGeometry x="146" y="110" width="150" height="50" as="geometry" />
        </mxCell>
        <mxCell id="vPuqmlGFBNl815EYrdy--3" value="视频设备管理" style="ellipse;whiteSpace=wrap;html=1;" vertex="1" parent="WIyWlLk6GJQsqaUBKTNV-1">
          <mxGeometry x="146" y="190" width="150" height="50" as="geometry" />
        </mxCell>
        <mxCell id="vPuqmlGFBNl815EYrdy--4" value="视频分组管理" style="ellipse;whiteSpace=wrap;html=1;" vertex="1" parent="WIyWlLk6GJQsqaUBKTNV-1">
          <mxGeometry x="146" y="270" width="150" height="50" as="geometry" />
        </mxCell>
        <mxCell id="vPuqmlGFBNl815EYrdy--5" value="视频权限管理" style="ellipse;whiteSpace=wrap;html=1;" vertex="1" parent="WIyWlLk6GJQsqaUBKTNV-1">
          <mxGeometry x="146" y="345" width="150" height="50" as="geometry" />
        </mxCell>
        <mxCell id="vPuqmlGFBNl815EYrdy--6" value="机构管理" style="ellipse;whiteSpace=wrap;html=1;" vertex="1" parent="WIyWlLk6GJQsqaUBKTNV-1">
          <mxGeometry x="146" y="420" width="150" height="50" as="geometry" />
        </mxCell>
        <mxCell id="vPuqmlGFBNl815EYrdy--7" style="rounded=0;orthogonalLoop=1;jettySize=auto;html=1;exitX=1;exitY=0.3333333333333333;exitDx=0;exitDy=0;exitPerimeter=0;entryX=0;entryY=0.5;entryDx=0;entryDy=0;endArrow=none;endFill=0;" edge="1" parent="WIyWlLk6GJQsqaUBKTNV-1" source="vPuqmlGFBNl815EYrdy--0" target="vPuqmlGFBNl815EYrdy--3">
          <mxGeometry relative="1" as="geometry">
            <mxPoint x="66" y="250" as="sourcePoint" />
            <mxPoint x="156" y="145" as="targetPoint" />
          </mxGeometry>
        </mxCell>
        <mxCell id="vPuqmlGFBNl815EYrdy--8" style="rounded=0;orthogonalLoop=1;jettySize=auto;html=1;entryX=0;entryY=0.5;entryDx=0;entryDy=0;endArrow=none;endFill=0;" edge="1" parent="WIyWlLk6GJQsqaUBKTNV-1" target="vPuqmlGFBNl815EYrdy--4">
          <mxGeometry relative="1" as="geometry">
            <mxPoint x="56" y="240" as="sourcePoint" />
            <mxPoint x="166" y="155" as="targetPoint" />
          </mxGeometry>
        </mxCell>
        <mxCell id="vPuqmlGFBNl815EYrdy--9" style="rounded=0;orthogonalLoop=1;jettySize=auto;html=1;entryX=0;entryY=0.5;entryDx=0;entryDy=0;endArrow=none;endFill=0;" edge="1" parent="WIyWlLk6GJQsqaUBKTNV-1" target="vPuqmlGFBNl815EYrdy--5">
          <mxGeometry relative="1" as="geometry">
            <mxPoint x="56" y="240" as="sourcePoint" />
            <mxPoint x="176" y="165" as="targetPoint" />
          </mxGeometry>
        </mxCell>
        <mxCell id="vPuqmlGFBNl815EYrdy--10" style="rounded=0;orthogonalLoop=1;jettySize=auto;html=1;entryX=0;entryY=0.5;entryDx=0;entryDy=0;endArrow=none;endFill=0;" edge="1" parent="WIyWlLk6GJQsqaUBKTNV-1" target="vPuqmlGFBNl815EYrdy--6">
          <mxGeometry relative="1" as="geometry">
            <mxPoint x="56" y="240" as="sourcePoint" />
            <mxPoint x="186" y="175" as="targetPoint" />
          </mxGeometry>
        </mxCell>
        <mxCell id="vPuqmlGFBNl815EYrdy--19" style="edgeStyle=orthogonalEdgeStyle;rounded=0;orthogonalLoop=1;jettySize=auto;html=1;exitX=0.5;exitY=1;exitDx=0;exitDy=0;exitPerimeter=0;entryX=0.5;entryY=0;entryDx=0;entryDy=0;strokeWidth=1;" edge="1" parent="WIyWlLk6GJQsqaUBKTNV-1" source="vPuqmlGFBNl815EYrdy--13" target="WIyWlLk6GJQsqaUBKTNV-3">
          <mxGeometry relative="1" as="geometry" />
        </mxCell>
        <mxCell id="vPuqmlGFBNl815EYrdy--13" value="开始" style="strokeWidth=1;html=1;shape=mxgraph.flowchart.terminator;whiteSpace=wrap;" vertex="1" parent="WIyWlLk6GJQsqaUBKTNV-1">
          <mxGeometry x="543" y="150" width="116" height="40" as="geometry" />
        </mxCell>
        <mxCell id="vPuqmlGFBNl815EYrdy--16" value="分组管理" style="rounded=1;whiteSpace=wrap;html=1;fontSize=12;glass=0;strokeWidth=1;shadow=0;" vertex="1" parent="WIyWlLk6GJQsqaUBKTNV-1">
          <mxGeometry x="511" y="335" width="85" height="40" as="geometry" />
        </mxCell>
        <mxCell id="vPuqmlGFBNl815EYrdy--17" value="权限管理" style="rounded=1;whiteSpace=wrap;html=1;fontSize=12;glass=0;strokeWidth=1;shadow=0;" vertex="1" parent="WIyWlLk6GJQsqaUBKTNV-1">
          <mxGeometry x="616" y="335" width="96" height="40" as="geometry" />
        </mxCell>
        <mxCell id="vPuqmlGFBNl815EYrdy--18" value="机构管理" style="rounded=1;whiteSpace=wrap;html=1;fontSize=12;glass=0;strokeWidth=1;shadow=0;" vertex="1" parent="WIyWlLk6GJQsqaUBKTNV-1">
          <mxGeometry x="732" y="335" width="85" height="40" as="geometry" />
        </mxCell>
        <mxCell id="vPuqmlGFBNl815EYrdy--22" style="edgeStyle=orthogonalEdgeStyle;rounded=0;orthogonalLoop=1;jettySize=auto;html=1;exitX=0.5;exitY=1;exitDx=0;exitDy=0;entryX=0.587;entryY=0.017;entryDx=0;entryDy=0;entryPerimeter=0;strokeWidth=1;" edge="1" parent="WIyWlLk6GJQsqaUBKTNV-1" source="WIyWlLk6GJQsqaUBKTNV-3" target="vPuqmlGFBNl815EYrdy--17">
          <mxGeometry relative="1" as="geometry" />
        </mxCell>
        <mxCell id="vPuqmlGFBNl815EYrdy--23" style="edgeStyle=orthogonalEdgeStyle;rounded=0;orthogonalLoop=1;jettySize=auto;html=1;exitX=0.5;exitY=1;exitDx=0;exitDy=0;entryX=0.624;entryY=0.017;entryDx=0;entryDy=0;entryPerimeter=0;strokeWidth=1;" edge="1" parent="WIyWlLk6GJQsqaUBKTNV-1" source="WIyWlLk6GJQsqaUBKTNV-3" target="vPuqmlGFBNl815EYrdy--18">
          <mxGeometry relative="1" as="geometry" />
        </mxCell>
        <mxCell id="vPuqmlGFBNl815EYrdy--24" value="结束" style="strokeWidth=1;html=1;shape=mxgraph.flowchart.terminator;whiteSpace=wrap;" vertex="1" parent="WIyWlLk6GJQsqaUBKTNV-1">
          <mxGeometry x="551" y="420" width="116" height="40" as="geometry" />
        </mxCell>
        <mxCell id="vPuqmlGFBNl815EYrdy--25" style="edgeStyle=orthogonalEdgeStyle;rounded=0;orthogonalLoop=1;jettySize=auto;html=1;exitX=0.5;exitY=1;exitDx=0;exitDy=0;entryX=0.5;entryY=0;entryDx=0;entryDy=0;entryPerimeter=0;strokeWidth=1;" edge="1" parent="WIyWlLk6GJQsqaUBKTNV-1" source="WIyWlLk6GJQsqaUBKTNV-7" target="vPuqmlGFBNl815EYrdy--24">
          <mxGeometry relative="1" as="geometry" />
        </mxCell>
        <mxCell id="vPuqmlGFBNl815EYrdy--27" style="edgeStyle=orthogonalEdgeStyle;rounded=0;orthogonalLoop=1;jettySize=auto;html=1;exitX=0.5;exitY=1;exitDx=0;exitDy=0;entryX=0.5;entryY=0;entryDx=0;entryDy=0;entryPerimeter=0;strokeWidth=1;" edge="1" parent="WIyWlLk6GJQsqaUBKTNV-1" source="vPuqmlGFBNl815EYrdy--17" target="vPuqmlGFBNl815EYrdy--24">
          <mxGeometry relative="1" as="geometry" />
        </mxCell>
        <mxCell id="vPuqmlGFBNl815EYrdy--28" style="edgeStyle=orthogonalEdgeStyle;rounded=0;orthogonalLoop=1;jettySize=auto;html=1;exitX=0.5;exitY=1;exitDx=0;exitDy=0;entryX=0.5;entryY=0;entryDx=0;entryDy=0;entryPerimeter=0;strokeWidth=1;" edge="1" parent="WIyWlLk6GJQsqaUBKTNV-1" source="vPuqmlGFBNl815EYrdy--18" target="vPuqmlGFBNl815EYrdy--24">
          <mxGeometry relative="1" as="geometry" />
        </mxCell>
        <mxCell id="vPuqmlGFBNl815EYrdy--29" style="edgeStyle=orthogonalEdgeStyle;rounded=0;orthogonalLoop=1;jettySize=auto;html=1;exitX=0.5;exitY=1;exitDx=0;exitDy=0;entryX=0.5;entryY=0;entryDx=0;entryDy=0;entryPerimeter=0;strokeWidth=1;" edge="1" parent="WIyWlLk6GJQsqaUBKTNV-1" source="vPuqmlGFBNl815EYrdy--16" target="vPuqmlGFBNl815EYrdy--24">
          <mxGeometry relative="1" as="geometry" />
        </mxCell>
      </root>
    </mxGraphModel>
  </diagram>
</mxfile>
